{"title":"A Million Ways to Die in the West (2014) HDRip XviD BY -=BGood57","uid":10955622,"size":1380534553,"categoryP":"video","categoryS":"hd___movies","magnet":"?xt=urn:btih:c827cd5af1a32d1c0195560a11f18b25528c352e&amp;dn=A+Million+Ways+to+Die+in+the+West+%282014%29+HDRip+XviD+BY+-%3DBGood57&amp;tr=udp%3A%2F%2Ftracker.openbittorrent.com%3A80&amp;tr=udp%3A%2F%2Fopen.demonii.com%3A1337&amp;tr=udp%3A%2F%2Ftracker.coppersurfer.tk%3A6969&amp;tr=udp%3A%2F%2Fexodus.desync.com%3A6969","seeders":3,"leechers":0,"uploader":"inovai","files":22,"time":1409677393,"description":"A Million Ways to Die in the West (2014) HDRip XviD BY -=BGood577=- [WBRG]\n\nScreenshots:\n &lt;a href=&quot;\nhttp://img.primetimeshow.in/share.php?id=81DF_5405DA21&quot; rel=&quot;nofollow&quot; target=&quot;_NEW&quot;&gt;\nhttp://img.primetimeshow.in/share.php?id=81DF_5405DA21&lt;/a&gt;\n &lt;a href=&quot;\nhttp://img.primetimeshow.in/share.php?id=6992_5405DA21&quot; rel=&quot;nofollow&quot; target=&quot;_NEW&quot;&gt;\nhttp://img.primetimeshow.in/share.php?id=6992_5405DA21&lt;/a&gt;\n &lt;a href=&quot;\nhttp://img.primetimeshow.in/share.php?id=FE32_5405DA21&quot; rel=&quot;nofollow&quot; target=&quot;_NEW&quot;&gt;\nhttp://img.primetimeshow.in/share.php?id=FE32_5405DA21&lt;/a&gt;\n &lt;a href=&quot;\nhttp://img.primetimeshow.in/share.php?id=5114_5405DA21&quot; rel=&quot;nofollow&quot; target=&quot;_NEW&quot;&gt;\nhttp://img.primetimeshow.in/share.php?id=5114_5405DA21&lt;/a&gt;\n &lt;a href=&quot;\nhttp://img.primetimeshow.in/share.php?id=282E_5405DA21&quot; rel=&quot;nofollow&quot; target=&quot;_NEW&quot;&gt;\nhttp://img.primetimeshow.in/share.php?id=282E_5405DA21&lt;/a&gt;\n &lt;a href=&quot;\nhttp://img.primetimeshow.in/share.php?id=D864_5405DBDF&quot; rel=&quot;nofollow&quot; target=&quot;_NEW&quot;&gt;\nhttp://img.primetimeshow.in/share.php?id=D864_5405DBDF&lt;/a&gt;\n\n\nGeneral Info:\nComplete name : A Million Ways to Die in the West (2014) HDRip XviD BY -=BGood577=- [WBRG]\nFormat : MPEG-4\nFormat profile : QuickTime\nCodec ID : qt\nFile size : 1.27 GiB\nDuration : 1h 56mn\nOverall bit rate : 1 558 Kbps\nWriting application : Lavf52.0.0\nComment : QuickTime 6.0 or greater\n\n==============================================\n\nVideo:\n\nID : 1\nFormat : MPEG-4 Visual\nFormat profile : Simple@L1\nFormat settings, BVOP : No\nFormat settings, QPel : No\nFormat settings, GMC : No warppoints\nFormat settings, Matrix : Default (H.263)\nCodec ID : 20\nDuration : 1h 56mn\nBit rate mode : Variable\nBit rate : 1 490 Kbps\nWidth : 640 pixels\nHeight : 272 pixels\nDisplay aspect ratio : 2.35:1\nFrame rate mode : Constant\nFrame rate : 23.976 fps\nColor space : YUV\nChroma subsampling : 4:2:0\nBit depth : 8 bits\nScan type : Progressive\nCompression mode : Lossy\nBits/(Pixel*Frame) : 0.357\nStream size : 1.21 GiB (96%)\nWriting library : Lavc52.48.0\nLanguage : English\n\n==============================================\n\n\nAudio Information:\n\nID : 2\nFormat : AAC\nFormat/Info : Advanced Audio Codec\nFormat version : Version 4\nFormat profile : LC\nCodec ID : 40\nDuration : 1h 55mn\nBit rate mode : Variable\nBit rate : 64.2 Kbps\nChannel(s) : 2 channels\nChannel positions : Front: L R\nSampling rate : 48.0 KHz\nCompression mode : Lossy\nStream size : 53.2 MiB (4%)\nLanguage : English\n\nThanks to -=BGood577=- [WBRG]!!\n\nSeed n Enjoy!!","torrent":{"xt":"urn:btih:c827cd5af1a32d1c0195560a11f18b25528c352e","amp;dn":"A+Million+Ways+to+Die+in+the+West+%282014%29+HDRip+XviD+BY+-%3DBGood57","amp;tr":["udp%3A%2F%2Ftracker.openbittorrent.com%3A80","udp%3A%2F%2Fopen.demonii.com%3A1337","udp%3A%2F%2Ftracker.coppersurfer.tk%3A6969","udp%3A%2F%2Fexodus.desync.com%3A6969"],"infoHash":"c827cd5af1a32d1c0195560a11f18b25528c352e","infoHashBuffer":{"type":"Buffer","data":[200,39,205,90,241,163,45,28,1,149,86,10,17,241,139,37,82,140,53,46]},"announce":[],"urlList":[]}}